<?xml version="1.0" ?><!DOCTYPE svg  PUBLIC '-//W3C//DTD SVG 1.1//EN'  'http://www.w3.org/Graphics/SVG/1.1/DTD/svg11.dtd'><svg height="60px" id="Layer_1" style="enable-background:new 0 0 64 63.999;" version="1.1" viewBox="0 0 64 63.999" width="64px" xml:space="preserve" xmlns="http://www.w3.org/2000/svg" xmlns:xlink="http://www.w3.org/1999/xlink"><g id="Shape_73_"><g><circle cx="32" cy="32" r="32" style="fill:#48A0DC;"/></g></g><g id="Twitter_Logo"><g><path d="M46.004,24.607c-1.03,0.443-2.138,0.741-3.301,0.874c1.187-0.686,2.098-1.772,2.526-3.07    c-1.11,0.637-2.339,1.099-3.648,1.348c-1.048-1.079-2.541-1.753-4.194-1.753c-3.173,0-5.745,2.485-5.745,5.55    c0,0.436,0.05,0.859,0.148,1.265c-4.775-0.23-9.01-2.44-11.844-5.799c-0.495,0.82-0.778,1.773-0.778,2.79    c0,1.926,1.015,3.625,2.557,4.621c-0.941-0.029-1.828-0.279-2.603-0.695c-0.001,0.023-0.001,0.047-0.001,0.07    c0,2.689,1.98,4.932,4.609,5.442c-0.481,0.127-0.989,0.195-1.514,0.195c-0.371,0-0.73-0.035-1.081-0.1    c0.731,2.204,2.854,3.809,5.367,3.853c-1.967,1.489-4.444,2.377-7.136,2.377c-0.464,0-0.922-0.027-1.371-0.078    c2.543,1.576,5.563,2.495,8.809,2.495c10.569,0,16.349-8.459,16.349-15.792c0-0.24-0.005-0.481-0.017-0.719    C44.259,26.699,45.233,25.721,46.004,24.607z" style="fill:#FFFFFF;"/></g></g><g/><g/><g/><g/><g/><g/><g/><g/><g/><g/><g/><g/><g/><g/><g/></svg>